<svg width="53" height="61" viewBox="0 0 53 61" fill="none" xmlns="http://www.w3.org/2000/svg">
<path d="M20.9644 0L20.8311 1.06148C18.9648 9.1209 23.6307 12.6802 23.6307 12.6802L25.0971 10.9765C25.0971 10.9765 21.8976 8.38704 22.6975 2.64716C28.1633 4.16731 30.4296 7.44349 31.2294 9.04227C25.3637 11.1076 23.764 16.546 20.5645 20.5692L23.3641 20.0581L23.0974 24.1599C23.0974 24.1599 28.9631 23.0198 32.2959 26.4794C32.9625 25.3524 33.3624 24.0026 33.0958 22.6529L32.6959 18.9573C32.2959 18.8132 31.7627 18.5642 31.2294 18.2497C29.6297 17.293 27.8967 15.7467 27.8967 15.7467C27.63 15.4977 27.63 15.0652 27.7633 14.7245C28.03 14.3969 28.4299 14.2396 28.6965 14.3707C28.6965 14.3707 30.163 14.8293 31.4961 15.2487C32.9625 15.7598 34.1623 17.1227 34.2956 18.7345C34.4289 19.8353 34.6956 21.2113 34.8289 22.4432C35.0955 24.4613 34.4289 26.4794 33.2291 28.0389L34.1623 30.4371H39.2282L40.1613 28.0389C38.9615 26.4794 38.295 24.4613 38.5616 22.4432C38.6949 21.2113 38.9615 19.8353 39.0948 18.7345C39.2282 17.1227 40.428 15.7598 41.8944 15.2487C43.2275 14.8293 44.6939 14.3707 44.6939 14.3707C44.9606 14.2396 45.3605 14.3969 45.6271 14.7245C45.7604 15.0652 45.7604 15.4977 45.4938 15.7467C45.4938 15.7467 43.7608 17.293 42.161 18.2497C41.6278 18.5642 41.0945 18.8132 40.6946 18.9573L40.2946 22.6529C40.028 24.0026 40.428 25.3524 41.0945 26.4794C44.4273 23.0198 50.293 24.1599 50.293 24.1599L50.0264 20.0581L52.826 20.5692C49.6265 16.546 48.0267 11.1076 42.161 9.04227C42.9609 7.44349 45.2272 4.16731 50.693 2.64716C51.4928 8.38704 48.2934 10.9765 48.2934 10.9765L49.7598 12.6802C49.7598 12.6802 54.4257 9.1209 52.5593 1.06148L52.426 0C46.6536 0.959267 40.9745 4.63515 37.7617 8.24288C37.0285 8.22585 36.362 8.17474 35.6287 8.24288C29.923 3.68899 27.4567 0.888502 20.9644 0ZM24.2572 26.8988C29.3498 33.8705 12.5658 33.0056 3.77923 42.559C0.298461 46.2283 -0.5574 49.9369 0.319791 53.0821C1.95019 58.8482 9.89957 62.6485 19.5247 60.2897C26.1636 58.5861 32.3226 56.0962 37.4951 55.0478C42.1743 53.9994 46.0004 54.3926 48.4667 58.1929L50.5063 57.5377C50.1197 52.5579 48.5866 48.5216 45.6404 46.071C43.4008 44.2102 40.3213 43.188 36.1886 43.3059C32.2826 43.4108 27.4034 44.5247 21.3644 46.8835C17.765 48.1285 11.166 50.5135 7.71326 48.5347C6.50012 47.8009 6.12685 46.569 6.22017 45.3503C10.8061 52.1647 22.7642 41.812 32.6825 40.6719C32.6825 40.6719 33.5624 29.1004 24.2572 26.8988ZM49.3998 26.8988C42.321 28.5238 40.8546 33.9885 40.7079 40.6719C44.2407 40.6457 47.3602 43.7777 47.3602 43.7777C47.3602 43.7777 43.7608 30.8564 49.3998 26.8988ZM36.0287 27.0692H37.3618C37.7617 27.0692 38.1617 27.4361 38.1617 27.8948C38.1617 28.3403 37.7617 28.7073 37.3618 28.7073H36.0287C35.6287 28.7073 35.2288 28.3403 35.2288 27.8948C35.2288 27.4361 35.6287 27.0692 36.0287 27.0692ZM44.214 47.7353C46.0404 49.2555 47.1735 51.5095 47.7868 54.2615C45.6804 52.6889 43.1209 52.1647 40.1747 52.4268C36.9619 52.6889 33.2558 53.7373 29.2031 55.0478L32.6825 51.7716C28.9098 53.6063 25.6037 53.9994 22.6308 53.3442L33.4158 48.0761L25.2571 49.5438C28.4299 46.8966 37.9484 42.7031 44.214 47.7353Z" fill="#ED760E"/>
</svg>
